<svg width="1200" height="780" viewBox="0 0 1200 780" fill="none" xmlns="http://www.w3.org/2000/svg">
<g filter="url(#filter0_b_296_1464)">
<g clip-path="url(#clip0_296_1464)">
<rect width="1200" height="780" rx="20" fill="url(#paint0_linear_296_1464)"/>
<g opacity="0.3">
<g style="mix-blend-mode:multiply" opacity="0.5">
<rect x="68" y="139" width="219.86" height="24" rx="4" fill="#7A818A"/>
<rect x="295.928" y="139" width="119.007" height="24" rx="4" fill="#7A818A"/>
<rect x="423.003" y="139" width="219.86" height="24" rx="4" fill="#7A818A"/>
<rect x="650.931" y="139" width="282.389" height="24" rx="4" fill="#7A818A"/>
<rect x="941.388" y="139" width="190.612" height="24" rx="4" fill="#7A818A"/>
</g>
<g style="mix-blend-mode:multiply" opacity="0.5">
<rect x="68" y="499" width="188" height="24" rx="4" fill="#7A818A"/>
<rect x="264" y="499" width="151" height="24" rx="4" fill="#7A818A"/>
<path opacity="0.8" d="M441.368 522L439.8 516.336H433.176L431.64 522H427.416L433.688 499.664H439.512L445.816 522H441.368ZM436.632 503.792H436.376L433.912 512.912H439.096L436.632 503.792ZM456.364 522.384C453.441 522.384 451.276 521.381 449.868 519.376C448.481 517.371 447.788 514.523 447.788 510.832C447.788 507.163 448.481 504.325 449.868 502.32C451.276 500.293 453.441 499.28 456.364 499.28C457.473 499.28 458.444 499.429 459.276 499.728C460.129 500.027 460.865 500.443 461.484 500.976C462.102 501.488 462.614 502.117 463.02 502.864C463.425 503.589 463.745 504.389 463.98 505.264L460.14 506.352C459.99 505.84 459.82 505.36 459.628 504.912C459.436 504.464 459.19 504.08 458.892 503.76C458.614 503.419 458.262 503.163 457.836 502.992C457.409 502.8 456.897 502.704 456.3 502.704C454.849 502.704 453.804 503.259 453.164 504.368C452.545 505.477 452.236 506.992 452.236 508.912V512.752C452.236 514.672 452.545 516.187 453.164 517.296C453.804 518.405 454.849 518.96 456.3 518.96C456.897 518.96 457.409 518.875 457.836 518.704C458.262 518.512 458.614 518.256 458.892 517.936C459.19 517.595 459.436 517.2 459.628 516.752C459.82 516.304 459.99 515.824 460.14 515.312L463.98 516.4C463.745 517.275 463.425 518.085 463.02 518.832C462.614 519.557 462.102 520.187 461.484 520.72C460.865 521.232 460.129 521.637 459.276 521.936C458.444 522.235 457.473 522.384 456.364 522.384ZM475.551 522.384C472.628 522.384 470.463 521.381 469.055 519.376C467.668 517.371 466.975 514.523 466.975 510.832C466.975 507.163 467.668 504.325 469.055 502.32C470.463 500.293 472.628 499.28 475.551 499.28C476.66 499.28 477.631 499.429 478.463 499.728C479.316 500.027 480.052 500.443 480.671 500.976C481.29 501.488 481.802 502.117 482.207 502.864C482.612 503.589 482.932 504.389 483.167 505.264L479.327 506.352C479.178 505.84 479.007 505.36 478.815 504.912C478.623 504.464 478.378 504.08 478.079 503.76C477.802 503.419 477.45 503.163 477.023 502.992C476.596 502.8 476.084 502.704 475.487 502.704C474.036 502.704 472.991 503.259 472.351 504.368C471.732 505.477 471.423 506.992 471.423 508.912V512.752C471.423 514.672 471.732 516.187 472.351 517.296C472.991 518.405 474.036 518.96 475.487 518.96C476.084 518.96 476.596 518.875 477.023 518.704C477.45 518.512 477.802 518.256 478.079 517.936C478.378 517.595 478.623 517.2 478.815 516.752C479.007 516.304 479.178 515.824 479.327 515.312L483.167 516.4C482.932 517.275 482.612 518.085 482.207 518.832C481.802 519.557 481.29 520.187 480.671 520.72C480.052 521.232 479.316 521.637 478.463 521.936C477.631 522.235 476.66 522.384 475.551 522.384ZM487.219 522V499.664H501.331V503.12H491.411V508.944H500.979V512.4H491.411V518.544H501.331V522H487.219ZM513.094 522.384C511.174 522.384 509.531 522.053 508.166 521.392C506.822 520.731 505.723 519.856 504.87 518.768L507.398 516.144C508.23 517.104 509.126 517.819 510.086 518.288C511.067 518.736 512.113 518.96 513.222 518.96C514.502 518.96 515.483 518.672 516.166 518.096C516.849 517.52 517.19 516.688 517.19 515.6C517.19 514.704 516.934 514.032 516.422 513.584C515.91 513.115 515.046 512.784 513.83 512.592L511.462 512.208C509.393 511.845 507.921 511.099 507.046 509.968C506.171 508.816 505.734 507.461 505.734 505.904C505.734 503.771 506.427 502.139 507.814 501.008C509.201 499.856 511.121 499.28 513.574 499.28C515.323 499.28 516.827 499.557 518.086 500.112C519.366 500.667 520.39 501.424 521.158 502.384L518.694 505.008C518.097 504.304 517.382 503.749 516.55 503.344C515.718 502.917 514.737 502.704 513.606 502.704C511.174 502.704 509.958 503.707 509.958 505.712C509.958 506.565 510.214 507.216 510.726 507.664C511.238 508.112 512.113 508.443 513.35 508.656L515.686 509.072C517.627 509.435 519.067 510.149 520.006 511.216C520.945 512.283 521.414 513.648 521.414 515.312C521.414 516.357 521.233 517.317 520.87 518.192C520.507 519.045 519.974 519.792 519.27 520.432C518.566 521.051 517.691 521.531 516.646 521.872C515.622 522.213 514.438 522.384 513.094 522.384ZM532.282 522.384C530.362 522.384 528.719 522.053 527.354 521.392C526.01 520.731 524.911 519.856 524.058 518.768L526.586 516.144C527.418 517.104 528.314 517.819 529.274 518.288C530.255 518.736 531.3 518.96 532.41 518.96C533.69 518.96 534.671 518.672 535.354 518.096C536.036 517.52 536.378 516.688 536.378 515.6C536.378 514.704 536.122 514.032 535.61 513.584C535.098 513.115 534.234 512.784 533.018 512.592L530.65 512.208C528.58 511.845 527.108 511.099 526.234 509.968C525.359 508.816 524.922 507.461 524.922 505.904C524.922 503.771 525.615 502.139 527.002 501.008C528.388 499.856 530.308 499.28 532.762 499.28C534.511 499.28 536.015 499.557 537.274 500.112C538.554 500.667 539.578 501.424 540.346 502.384L537.882 505.008C537.284 504.304 536.57 503.749 535.738 503.344C534.906 502.917 533.924 502.704 532.794 502.704C530.362 502.704 529.146 503.707 529.146 505.712C529.146 506.565 529.402 507.216 529.914 507.664C530.426 508.112 531.3 508.443 532.538 508.656L534.874 509.072C536.815 509.435 538.255 510.149 539.194 511.216C540.132 512.283 540.602 513.648 540.602 515.312C540.602 516.357 540.42 517.317 540.058 518.192C539.695 519.045 539.162 519.792 538.458 520.432C537.754 521.051 536.879 521.531 535.834 521.872C534.81 522.213 533.626 522.384 532.282 522.384ZM563.649 499.664H570.593C573.494 499.664 575.649 500.624 577.057 502.544C578.486 504.464 579.201 507.227 579.201 510.832C579.201 514.459 578.486 517.232 577.057 519.152C575.649 521.051 573.494 522 570.593 522H563.649V499.664ZM570.305 518.64C571.841 518.64 572.971 518.139 573.697 517.136C574.443 516.133 574.817 514.672 574.817 512.752V508.88C574.817 506.981 574.443 505.531 573.697 504.528C572.971 503.525 571.841 503.024 570.305 503.024H567.777V518.64H570.305ZM583.156 522V499.664H597.268V503.12H587.348V508.944H596.916V512.4H587.348V518.544H597.268V522H583.156ZM605.736 505.968H605.416V522H601.832V499.664H606.984L612.84 515.696H613.16V499.664H616.744V522H611.592L605.736 505.968ZM621.371 522V518.864H626.395V502.8H621.371V499.664H635.579V502.8H630.555V518.864H635.579V522H621.371ZM640.719 522V499.664H654.831V503.12H644.911V508.944H654.479V512.4H644.911V518.544H654.831V522H640.719ZM659.586 499.664H666.53C669.431 499.664 671.586 500.624 672.994 502.544C674.423 504.464 675.138 507.227 675.138 510.832C675.138 514.459 674.423 517.232 672.994 519.152C671.586 521.051 669.431 522 666.53 522H659.586V499.664ZM666.242 518.64C667.778 518.64 668.909 518.139 669.634 517.136C670.381 516.133 670.754 514.672 670.754 512.752V508.88C670.754 506.981 670.381 505.531 669.634 504.528C668.909 503.525 667.778 503.024 666.242 503.024H663.714V518.64H666.242Z" fill="#7A818A"/>
<rect x="689" y="499" width="202" height="24" rx="4" fill="#7A818A"/>
<rect x="899" y="499" width="233" height="24" rx="4" fill="#7A818A"/>
</g>
<g style="mix-blend-mode:multiply" opacity="0.5">
<rect x="68" y="339" width="219.86" height="24" rx="4" fill="#7A818A"/>
<rect x="295.928" y="339" width="119.007" height="24" rx="4" fill="#7A818A"/>
<rect x="423.003" y="339" width="219.86" height="24" rx="4" fill="#7A818A"/>
<rect x="650.931" y="339" width="282.389" height="24" rx="4" fill="#7A818A"/>
<rect x="941.388" y="339" width="190.612" height="24" rx="4" fill="#7A818A"/>
</g>
<g style="mix-blend-mode:multiply" opacity="0.5">
<rect x="68" y="699" width="219.86" height="24" rx="4" fill="#7A818A"/>
<rect x="295.928" y="699" width="119.007" height="24" rx="4" fill="#7A818A"/>
<rect x="423.003" y="699" width="219.86" height="24" rx="4" fill="#7A818A"/>
<rect x="650.931" y="699" width="282.389" height="24" rx="4" fill="#7A818A"/>
<rect x="941.388" y="699" width="190.612" height="24" rx="4" fill="#7A818A"/>
</g>
<g style="mix-blend-mode:multiply" opacity="0.5">
<rect x="68" y="259" width="219.86" height="24" rx="4" fill="#7A818A"/>
<rect x="295.928" y="259" width="119.007" height="24" rx="4" fill="#7A818A"/>
<rect x="423.003" y="259" width="219.86" height="24" rx="4" fill="#7A818A"/>
<rect x="650.931" y="259" width="282.389" height="24" rx="4" fill="#7A818A"/>
<rect x="941.388" y="259" width="190.612" height="24" rx="4" fill="#7A818A"/>
</g>
<g style="mix-blend-mode:multiply" opacity="0.5">
<rect x="68" y="619" width="219.86" height="24" rx="4" fill="#7A818A"/>
<path d="M311.094 637.161C311.453 637.161 311.754 637.041 311.997 636.802C312.239 636.563 312.36 636.267 312.36 635.914C312.36 635.562 312.241 635.261 312.002 635.012C311.762 634.763 311.463 634.638 311.104 634.638C310.745 634.638 310.444 634.761 310.202 635.008C309.959 635.254 309.838 635.55 309.838 635.894C309.838 636.254 309.957 636.554 310.197 636.797C310.436 637.039 310.735 637.161 311.094 637.161ZM311.099 632.271C311.435 632.271 311.725 632.153 311.967 631.917C312.21 631.681 312.331 631.395 312.331 631.058V626.033C312.331 625.69 312.211 625.399 311.972 625.16C311.732 624.92 311.441 624.8 311.099 624.8C310.762 624.8 310.476 624.92 310.24 625.16C310.004 625.399 309.886 625.69 309.886 626.033V631.058C309.886 631.395 310.004 631.681 310.24 631.917C310.476 632.153 310.762 632.271 311.099 632.271ZM307.49 642.099C307.158 642.099 306.838 642.034 306.529 641.902C306.22 641.771 305.955 641.594 305.734 641.371L300.728 636.365C300.504 636.143 300.326 635.879 300.196 635.574C300.065 635.269 300 634.947 300 634.609V627.371C300 627.044 300.065 626.729 300.196 626.424C300.326 626.119 300.504 625.856 300.728 625.635L305.734 620.629C305.956 620.404 306.22 620.227 306.525 620.097C306.83 619.966 307.152 619.901 307.49 619.901H314.728C315.055 619.901 315.371 619.966 315.675 620.097C315.98 620.227 316.243 620.404 316.464 620.629L321.471 625.635C321.695 625.856 321.872 626.119 322.002 626.424C322.133 626.729 322.198 627.044 322.198 627.371V634.609C322.198 634.941 322.133 635.261 322.002 635.57C321.871 635.879 321.694 636.144 321.471 636.365L316.464 641.371C316.243 641.596 315.98 641.773 315.675 641.903C315.371 642.034 315.055 642.099 314.728 642.099H307.49Z" fill="#7A818A"/>
<path opacity="0.8" d="M332.854 642V619.664H346.966V623.12H337.046V628.944H346.614V632.4H337.046V638.544H346.966V642H332.854ZM356.138 642H351.946V619.664H360.426C362.602 619.664 364.266 620.283 365.418 621.52C366.57 622.757 367.146 624.443 367.146 626.576C367.146 628.219 366.762 629.605 365.994 630.736C365.247 631.845 364.17 632.549 362.762 632.848L367.53 642H362.922L358.666 633.328H356.138V642ZM359.562 630.064C360.692 630.064 361.503 629.84 361.994 629.392C362.484 628.923 362.73 628.187 362.73 627.184V625.968C362.73 624.965 362.484 624.24 361.994 623.792C361.503 623.323 360.692 623.088 359.562 623.088H356.138V630.064H359.562ZM375.325 642H371.133V619.664H379.613C381.789 619.664 383.453 620.283 384.605 621.52C385.757 622.757 386.333 624.443 386.333 626.576C386.333 628.219 385.949 629.605 385.181 630.736C384.435 631.845 383.357 632.549 381.949 632.848L386.717 642H382.109L377.853 633.328H375.325V642ZM378.749 630.064C379.88 630.064 380.691 629.84 381.181 629.392C381.672 628.923 381.917 628.187 381.917 627.184V625.968C381.917 624.965 381.672 624.24 381.181 623.792C380.691 623.323 379.88 623.088 378.749 623.088H375.325V630.064H378.749ZM397.361 642.384C395.91 642.384 394.651 642.128 393.585 641.616C392.518 641.083 391.633 640.325 390.929 639.344C390.246 638.363 389.734 637.157 389.393 635.728C389.073 634.299 388.913 632.667 388.913 630.832C388.913 629.019 389.073 627.397 389.393 625.968C389.734 624.517 390.246 623.301 390.929 622.32C391.633 621.339 392.518 620.592 393.585 620.08C394.651 619.547 395.91 619.28 397.361 619.28C400.262 619.28 402.395 620.293 403.761 622.32C405.126 624.347 405.809 627.184 405.809 630.832C405.809 634.48 405.126 637.317 403.761 639.344C402.395 641.371 400.262 642.384 397.361 642.384ZM397.361 638.96C398.107 638.96 398.737 638.821 399.249 638.544C399.761 638.245 400.166 637.829 400.465 637.296C400.785 636.763 401.009 636.112 401.137 635.344C401.286 634.555 401.361 633.68 401.361 632.72V628.912C401.361 626.992 401.062 625.477 400.465 624.368C399.889 623.259 398.854 622.704 397.361 622.704C395.867 622.704 394.822 623.259 394.225 624.368C393.649 625.477 393.361 626.992 393.361 628.912V632.752C393.361 634.672 393.649 636.187 394.225 637.296C394.822 638.405 395.867 638.96 397.361 638.96ZM413.7 642H409.508V619.664H417.988C420.164 619.664 421.828 620.283 422.98 621.52C424.132 622.757 424.708 624.443 424.708 626.576C424.708 628.219 424.324 629.605 423.556 630.736C422.81 631.845 421.732 632.549 420.324 632.848L425.092 642H420.484L416.228 633.328H413.7V642ZM417.124 630.064C418.255 630.064 419.066 629.84 419.556 629.392C420.047 628.923 420.292 628.187 420.292 627.184V625.968C420.292 624.965 420.047 624.24 419.556 623.792C419.066 623.323 418.255 623.088 417.124 623.088H413.7V630.064H417.124ZM456.555 642V637.68H446.219V634.096L455.339 619.664H460.555V634.416H463.563V637.68H460.555V642H456.555ZM449.643 634.416H456.555V623.76H456.299L449.643 634.416ZM481.087 623.312H470.847L470.303 630.8H470.559C470.815 630.331 471.092 629.904 471.391 629.52C471.689 629.115 472.031 628.773 472.415 628.496C472.82 628.219 473.268 628.005 473.759 627.856C474.271 627.707 474.857 627.632 475.519 627.632C476.457 627.632 477.343 627.792 478.175 628.112C479.007 628.432 479.732 628.891 480.351 629.488C480.969 630.085 481.449 630.821 481.791 631.696C482.153 632.571 482.335 633.563 482.335 634.672C482.335 635.781 482.143 636.805 481.759 637.744C481.396 638.683 480.852 639.504 480.127 640.208C479.423 640.891 478.548 641.424 477.503 641.808C476.479 642.192 475.295 642.384 473.951 642.384C472.905 642.384 471.967 642.267 471.135 642.032C470.324 641.819 469.609 641.52 468.991 641.136C468.372 640.752 467.828 640.315 467.359 639.824C466.889 639.312 466.484 638.789 466.143 638.256L469.183 635.856C469.439 636.283 469.716 636.688 470.015 637.072C470.335 637.435 470.687 637.755 471.071 638.032C471.455 638.309 471.881 638.533 472.351 638.704C472.841 638.853 473.396 638.928 474.015 638.928C475.295 638.928 476.265 638.587 476.927 637.904C477.609 637.2 477.951 636.24 477.951 635.024V634.768C477.951 633.595 477.609 632.677 476.927 632.016C476.244 631.355 475.284 631.024 474.047 631.024C473.108 631.024 472.34 631.205 471.743 631.568C471.167 631.909 470.697 632.283 470.335 632.688L466.911 632.208L467.743 619.664H481.087V623.312ZM486.61 642V638.576H492.754V622.704H492.466L487.602 628.464L484.978 626.256L490.514 619.664H496.946V638.576H502.002V642H486.61Z" fill="#7A818A"/>
<rect x="515" y="619" width="170" height="24" rx="4" fill="#7A818A"/>
<rect x="693" y="619" width="240" height="24" rx="4" fill="#7A818A"/>
<rect x="941.388" y="619" width="190.612" height="24" rx="4" fill="#7A818A"/>
</g>
<g style="mix-blend-mode:multiply" opacity="0.5">
<rect x="195" y="459" width="93" height="24" rx="4" fill="#7A818A"/>
<path fill-rule="evenodd" clip-rule="evenodd" d="M106.375 480H109.733C109.998 480 110.213 480.224 110.213 480.5V483.5C110.213 483.776 109.998 484 109.733 484H106.855C106.59 484 106.375 483.776 106.375 483.5V480ZM98.7004 480H102.538V483.5C102.538 483.776 102.323 484 102.058 484H99.1801C98.9152 484 98.7004 483.776 98.7004 483.5V480ZM91.0253 480H94.8628V483.5C94.8628 483.776 94.6481 484 94.3832 484H91.505C91.2401 484 91.0253 483.776 91.0253 483.5V480ZM102.538 476H106.375V480H102.538V476ZM83.3502 480H87.1877V483.5C87.1877 483.776 86.973 484 86.7081 484H83.8299C83.565 484 83.3502 483.776 83.3502 483.5V480ZM94.8628 476H98.7004V480H94.8628V476ZM75.6751 480H79.5126V483.5C79.5126 483.776 79.2979 484 79.033 484H76.1548C75.8899 484 75.6751 483.776 75.6751 483.5V480ZM68 480.444C68 480.199 68.1909 480 68.4264 480H71.8375V483.556C71.8375 483.801 71.6466 484 71.4112 484C69.5272 484 68 482.408 68 480.444ZM87.1877 476H91.0253V480H87.1877V476ZM68 472.5C68 472.224 68.2148 472 68.4797 472H71.8375V476H68.4797C68.2148 476 68 475.776 68 475.5V472.5ZM71.8375 468H75.6751V472H71.8375V468ZM106.375 472H109.733C109.998 472 110.213 472.224 110.213 472.5V475.5C110.213 475.776 109.998 476 109.733 476H106.375V472ZM106.375 464H109.733C109.998 464 110.213 464.224 110.213 464.5V467.5C110.213 467.776 109.998 468 109.733 468H106.375V464ZM102.538 468H106.375V472H102.538V468ZM98.7004 472H102.538V476H98.7004V472ZM91.0253 472H94.8628V476H91.0253V472ZM94.8628 468H98.7004V472H94.8628V468ZM98.7004 464H102.538V468H98.7004V464ZM102.538 460.5C102.538 460.224 102.753 460 103.018 460H105.896C106.161 460 106.375 460.224 106.375 460.5V464H102.538V460.5ZM75.6751 464H79.5126V468H75.6751V464ZM79.5126 460.5C79.5126 460.224 79.7274 460 79.9923 460H82.8705C83.1354 460 83.3502 460.224 83.3502 460.5V464H79.5126V460.5ZM94.8628 460.5C94.8628 460.224 95.0776 460 95.3425 460H98.2207C98.4856 460 98.7004 460.224 98.7004 460.5V464H94.8628V460.5ZM91.0253 464H94.8628V468H91.0253V464ZM87.1877 468H91.0253V472H87.1877V468ZM83.3502 472H87.1877V476H83.3502V472ZM79.5126 476H83.3502V480H79.5126V476ZM71.8375 476H75.6751V480H71.8375V476ZM75.6751 472H79.5126V476H75.6751V472ZM79.5126 468H83.3502V472H79.5126V468ZM83.3502 464H87.1877V468H83.3502V464ZM87.1877 460.5C87.1877 460.224 87.4025 460 87.6674 460H90.5456C90.8105 460 91.0253 460.224 91.0253 460.5V464H87.1877V460.5ZM71.8375 460.5C71.8375 460.224 72.0523 460 72.3172 460H75.1954C75.4603 460 75.6751 460.224 75.6751 460.5V464H71.8375V460.5ZM68 464.5C68 464.224 68.2148 464 68.4797 464H71.8375V468H68.4797C68.2148 468 68 467.776 68 467.5V464.5Z" fill="#7A818A"/>
<path fill-rule="evenodd" clip-rule="evenodd" d="M110.221 480H106.863C106.598 480 106.383 480.224 106.383 480.5V483.5C106.383 483.776 106.598 484 106.863 484H109.741C110.006 484 110.221 483.776 110.221 483.5V480ZM117.896 480H114.058V483.5C114.058 483.776 114.273 484 114.538 484H117.416C117.681 484 117.896 483.776 117.896 483.5V480ZM125.571 480H121.733V483.5C121.733 483.776 121.948 484 122.213 484H125.091C125.356 484 125.571 483.776 125.571 483.5V480ZM114.058 476H110.221V480H114.058V476ZM133.246 480H129.408V483.5C129.408 483.776 129.623 484 129.888 484H132.766C133.031 484 133.246 483.776 133.246 483.5V480ZM121.733 476H117.896V480H121.733V476ZM140.921 480H137.083V483.5C137.083 483.776 137.298 484 137.563 484H140.441C140.706 484 140.921 483.776 140.921 483.5V480ZM148.596 480.5C148.596 480.224 148.381 480 148.116 480H144.758V483.5C144.758 483.776 144.973 484 145.238 484H148.116C148.381 484 148.596 483.776 148.596 483.5V480.5ZM129.408 476H125.571V480H129.408V476ZM148.596 472.5C148.596 472.224 148.381 472 148.116 472H144.758V476H148.116C148.381 476 148.596 475.776 148.596 475.5V472.5ZM144.758 468H140.921V472H144.758V468ZM110.221 472H106.863C106.598 472 106.383 472.224 106.383 472.5V475.5C106.383 475.776 106.598 476 106.863 476H110.221V472ZM110.221 464H106.863C106.598 464 106.383 464.224 106.383 464.5V467.5C106.383 467.776 106.598 468 106.863 468H110.221V464ZM114.058 468H110.221V472H114.058V468ZM117.896 472H114.058V476H117.896V472ZM125.571 472H121.733V476H125.571V472ZM121.733 468H117.896V472H121.733V468ZM117.896 464H114.058V468H117.896V464ZM114.058 460.5C114.058 460.224 113.843 460 113.578 460H110.7C110.435 460 110.221 460.224 110.221 460.5V464H114.058V460.5ZM140.921 464H137.083V468H140.921V464ZM137.083 460.5C137.083 460.224 136.869 460 136.604 460H133.726C133.461 460 133.246 460.224 133.246 460.5V464H137.083V460.5ZM121.733 460.5C121.733 460.224 121.518 460 121.253 460H118.375C118.11 460 117.896 460.224 117.896 460.5V464H121.733V460.5ZM125.571 464H121.733V468H125.571V464ZM129.408 468H125.571V472H129.408V468ZM133.246 472H129.408V476H133.246V472ZM137.083 476H133.246V480H137.083V476ZM144.758 476H140.921V480H144.758V476ZM140.921 472H137.083V476H140.921V472ZM137.083 468H133.246V472H137.083V468ZM133.246 464H129.408V468H133.246V464ZM129.408 460.5C129.408 460.224 129.194 460 128.929 460H126.05C125.786 460 125.571 460.224 125.571 460.5V464H129.408V460.5ZM144.758 460.5C144.758 460.224 144.544 460 144.279 460H141.401C141.136 460 140.921 460.224 140.921 460.5V464H144.758V460.5ZM148.596 464.5C148.596 464.224 148.381 464 148.116 464H144.758V468H148.116C148.381 468 148.596 467.776 148.596 467.5V464.5Z" fill="#7A818A"/>
<path fill-rule="evenodd" clip-rule="evenodd" d="M148.625 480H145.267C145.002 480 144.787 480.224 144.787 480.5V483.5C144.787 483.776 145.002 484 145.267 484H148.145C148.41 484 148.625 483.776 148.625 483.5V480ZM156.3 480H152.462V483.5C152.462 483.776 152.677 484 152.942 484H155.82C156.085 484 156.3 483.776 156.3 483.5V480ZM163.975 480H160.137V483.5C160.137 483.776 160.352 484 160.617 484H163.495C163.76 484 163.975 483.776 163.975 483.5V480ZM152.462 476H148.625V480H152.462V476ZM171.65 480H167.812V483.5C167.812 483.776 168.027 484 168.292 484H171.17C171.435 484 171.65 483.776 171.65 483.5V480ZM160.137 476H156.3V480H160.137V476ZM179.325 480H175.487V483.5C175.487 483.776 175.702 484 175.967 484H178.845C179.11 484 179.325 483.776 179.325 483.5V480ZM187 480.5C187 480.224 186.785 480 186.52 480H183.162V483.5C183.162 483.776 183.377 484 183.642 484H186.52C186.785 484 187 483.776 187 483.5V480.5ZM167.812 476H163.975V480H167.812V476ZM187 472.5C187 472.224 186.785 472 186.52 472H183.162V476H186.52C186.785 476 187 475.776 187 475.5V472.5ZM183.162 468H179.325V472H183.162V468ZM148.625 472H145.267C145.002 472 144.787 472.224 144.787 472.5V475.5C144.787 475.776 145.002 476 145.267 476H148.625V472ZM148.625 464H145.267C145.002 464 144.787 464.224 144.787 464.5V467.5C144.787 467.776 145.002 468 145.267 468H148.625V464ZM152.462 468H148.625V472H152.462V468ZM156.3 472H152.462V476H156.3V472ZM163.975 472H160.137V476H163.975V472ZM160.137 468H156.3V472H160.137V468ZM156.3 464H152.462V468H156.3V464ZM152.462 460.5C152.462 460.224 152.247 460 151.982 460H149.104C148.839 460 148.625 460.224 148.625 460.5V464H152.462V460.5ZM179.325 464H175.487V468H179.325V464ZM175.487 460.5C175.487 460.224 175.273 460 175.008 460H172.129C171.865 460 171.65 460.224 171.65 460.5V464H175.487V460.5ZM160.137 460.5C160.137 460.224 159.922 460 159.657 460H156.779C156.514 460 156.3 460.224 156.3 460.5V464H160.137V460.5ZM163.975 464H160.137V468H163.975V464ZM167.812 468H163.975V472H167.812V468ZM171.65 472H167.812V476H171.65V472ZM175.487 476H171.65V480H175.487V476ZM183.162 476H179.325V480H183.162V476ZM179.325 472H175.487V476H179.325V472ZM175.487 468H171.65V472H175.487V468ZM171.65 464H167.812V468H171.65V464ZM167.812 460.5C167.812 460.224 167.597 460 167.333 460H164.454C164.189 460 163.975 460.224 163.975 460.5V464H167.812V460.5ZM183.162 460.5C183.162 460.224 182.948 460 182.683 460H179.805C179.54 460 179.325 460.224 179.325 460.5V464H183.162V460.5ZM187 464.5C187 464.224 186.785 464 186.52 464H183.162V468H186.52C186.785 468 187 467.776 187 467.5V464.5Z" fill="#7A818A"/>
<rect x="296" y="459" width="155" height="24" rx="4" fill="#7A818A"/>
<rect x="459" y="459" width="184" height="24" rx="4" fill="#7A818A"/>
<rect x="651" y="459" width="267" height="24" rx="4" fill="#7A818A"/>
<rect x="926" y="459" width="206" height="24" rx="4" fill="#7A818A"/>
</g>
<g style="mix-blend-mode:multiply" opacity="0.5">
<rect x="68" y="219" width="86" height="24" rx="4" fill="#7A818A"/>
<rect x="162" y="219" width="344" height="24" rx="4" fill="#7A818A"/>
<rect x="514" y="219" width="129" height="24" rx="4" fill="#7A818A"/>
<rect x="651" y="219" width="276" height="24" rx="4" fill="#7A818A"/>
<rect x="935" y="219" width="197" height="24" rx="4" fill="#7A818A"/>
</g>
<g style="mix-blend-mode:multiply" opacity="0.5">
<rect x="68" y="579" width="51" height="24" rx="4" fill="#7A818A"/>
<path opacity="0.8" d="M135.928 594.32L134.36 586.16V579.664H138.84V586.16L137.272 594.32H135.928ZM136.6 602.352C135.533 602.352 134.776 602.128 134.328 601.68C133.901 601.232 133.688 600.688 133.688 600.048V599.152C133.688 598.512 133.901 597.968 134.328 597.52C134.776 597.072 135.533 596.848 136.6 596.848C137.667 596.848 138.413 597.072 138.84 597.52C139.288 597.968 139.512 598.512 139.512 599.152V600.048C139.512 600.688 139.288 601.232 138.84 601.68C138.413 602.128 137.667 602.352 136.6 602.352ZM148.076 594.32L146.508 586.16V579.664H150.988V586.16L149.42 594.32H148.076ZM148.748 602.352C147.681 602.352 146.924 602.128 146.476 601.68C146.049 601.232 145.836 600.688 145.836 600.048V599.152C145.836 598.512 146.049 597.968 146.476 597.52C146.924 597.072 147.681 596.848 148.748 596.848C149.814 596.848 150.561 597.072 150.988 597.52C151.436 597.968 151.66 598.512 151.66 599.152V600.048C151.66 600.688 151.436 601.232 150.988 601.68C150.561 602.128 149.814 602.352 148.748 602.352ZM160.223 594.32L158.655 586.16V579.664H163.135V586.16L161.567 594.32H160.223ZM160.895 602.352C159.828 602.352 159.071 602.128 158.623 601.68C158.196 601.232 157.983 600.688 157.983 600.048V599.152C157.983 598.512 158.196 597.968 158.623 597.52C159.071 597.072 159.828 596.848 160.895 596.848C161.962 596.848 162.708 597.072 163.135 597.52C163.583 597.968 163.807 598.512 163.807 599.152V600.048C163.807 600.688 163.583 601.232 163.135 601.68C162.708 602.128 161.962 602.352 160.895 602.352ZM172.371 594.32L170.803 586.16V579.664H175.283V586.16L173.715 594.32H172.371ZM173.043 602.352C171.976 602.352 171.219 602.128 170.771 601.68C170.344 601.232 170.131 600.688 170.131 600.048V599.152C170.131 598.512 170.344 597.968 170.771 597.52C171.219 597.072 171.976 596.848 173.043 596.848C174.109 596.848 174.856 597.072 175.283 597.52C175.731 597.968 175.955 598.512 175.955 599.152V600.048C175.955 600.688 175.731 601.232 175.283 601.68C174.856 602.128 174.109 602.352 173.043 602.352ZM184.518 594.32L182.95 586.16V579.664H187.43V586.16L185.862 594.32H184.518ZM185.19 602.352C184.123 602.352 183.366 602.128 182.918 601.68C182.491 601.232 182.278 600.688 182.278 600.048V599.152C182.278 598.512 182.491 597.968 182.918 597.52C183.366 597.072 184.123 596.848 185.19 596.848C186.257 596.848 187.003 597.072 187.43 597.52C187.878 597.968 188.102 598.512 188.102 599.152V600.048C188.102 600.688 187.878 601.232 187.43 601.68C187.003 602.128 186.257 602.352 185.19 602.352Z" fill="#7A818A"/>
<rect x="203" y="579" width="267" height="24" rx="4" fill="#7A818A"/>
<rect x="478" y="579" width="153" height="24" rx="4" fill="#7A818A"/>
<rect x="639" y="579" width="215" height="24" rx="4" fill="#7A818A"/>
<rect x="862" y="579" width="270" height="24" rx="4" fill="#7A818A"/>
</g>
<g style="mix-blend-mode:multiply" opacity="0.5">
<rect x="68" y="419" width="86" height="24" rx="4" fill="#7A818A"/>
<rect x="162" y="419" width="344" height="24" rx="4" fill="#7A818A"/>
<rect x="514" y="419" width="129" height="24" rx="4" fill="#7A818A"/>
<rect x="651" y="419" width="276" height="24" rx="4" fill="#7A818A"/>
<rect x="935" y="419" width="197" height="24" rx="4" fill="#7A818A"/>
</g>
<g style="mix-blend-mode:multiply" opacity="0.5">
<rect x="68" y="779" width="86" height="24" rx="4" fill="#7A818A"/>
<rect x="294" y="779" width="212" height="24" rx="4" fill="#7A818A"/>
<path opacity="0.8" d="M168.336 779.664H175.28C178.181 779.664 180.336 780.624 181.744 782.544C183.173 784.464 183.888 787.227 183.888 790.832C183.888 794.459 183.173 797.232 181.744 799.152C180.336 801.051 178.181 802 175.28 802H168.336V779.664ZM174.992 798.64C176.528 798.64 177.659 798.139 178.384 797.136C179.131 796.133 179.504 794.672 179.504 792.752V788.88C179.504 786.981 179.131 785.531 178.384 784.528C177.659 783.525 176.528 783.024 174.992 783.024H172.464V798.64H174.992ZM187.844 802V779.664H201.956V783.12H192.036V788.944H201.604V792.4H192.036V798.544H201.956V802H187.844ZM210.423 785.968H210.103V802H206.519V779.664H211.671L217.527 795.696H217.847V779.664H221.431V802H216.279L210.423 785.968ZM226.059 802V798.864H231.083V782.8H226.059V779.664H240.267V782.8H235.243V798.864H240.267V802H226.059ZM245.406 802V779.664H259.518V783.12H249.598V788.944H259.166V792.4H249.598V798.544H259.518V802H245.406ZM264.274 779.664H271.218C274.119 779.664 276.274 780.624 277.682 782.544C279.111 784.464 279.826 787.227 279.826 790.832C279.826 794.459 279.111 797.232 277.682 799.152C276.274 801.051 274.119 802 271.218 802H264.274V779.664ZM270.93 798.64C272.466 798.64 273.596 798.139 274.322 797.136C275.068 796.133 275.442 794.672 275.442 792.752V788.88C275.442 786.981 275.068 785.531 274.322 784.528C273.596 783.525 272.466 783.024 270.93 783.024H268.402V798.64H270.93Z" fill="#7A818A"/>
<rect x="514" y="779" width="129" height="24" rx="4" fill="#7A818A"/>
<rect x="651" y="779" width="276" height="24" rx="4" fill="#7A818A"/>
<rect x="935" y="779" width="197" height="24" rx="4" fill="#7A818A"/>
</g>
<g style="mix-blend-mode:multiply" opacity="0.5">
<rect x="68" y="179" width="306" height="24" rx="4" fill="#7A818A"/>
<path opacity="0.8" d="M388.656 202V179.664H403.248V183.12H392.848V188.944H402.224V192.4H392.848V202H388.656ZM419.556 202L417.988 196.336H411.364L409.828 202H405.604L411.876 179.664H417.7L424.003 202H419.556ZM414.82 183.792H414.564L412.1 192.912H417.284L414.82 183.792ZM426.871 202V198.864H431.895V182.8H426.871V179.664H441.079V182.8H436.055V198.864H441.079V202H426.871ZM446.763 202V179.664H450.955V198.544H460.843V202H446.763ZM465.406 202V179.664H479.518V183.12H469.598V188.944H479.166V192.4H469.598V198.544H479.518V202H465.406ZM484.274 179.664H491.218C494.119 179.664 496.274 180.624 497.682 182.544C499.111 184.464 499.826 187.227 499.826 190.832C499.826 194.459 499.111 197.232 497.682 199.152C496.274 201.051 494.119 202 491.218 202H484.274V179.664ZM490.93 198.64C492.466 198.64 493.596 198.139 494.322 197.136C495.068 196.133 495.442 194.672 495.442 192.752V188.88C495.442 186.981 495.068 185.531 494.322 184.528C493.596 183.525 492.466 183.024 490.93 183.024H488.402V198.64H490.93ZM531.993 183.12V202H527.833V183.12H521.113V179.664H538.713V183.12H531.993ZM549.1 202.384C547.649 202.384 546.391 202.128 545.324 201.616C544.257 201.083 543.372 200.325 542.668 199.344C541.985 198.363 541.473 197.157 541.132 195.728C540.812 194.299 540.652 192.667 540.652 190.832C540.652 189.019 540.812 187.397 541.132 185.968C541.473 184.517 541.985 183.301 542.668 182.32C543.372 181.339 544.257 180.592 545.324 180.08C546.391 179.547 547.649 179.28 549.1 179.28C552.001 179.28 554.135 180.293 555.5 182.32C556.865 184.347 557.548 187.184 557.548 190.832C557.548 194.48 556.865 197.317 555.5 199.344C554.135 201.371 552.001 202.384 549.1 202.384ZM549.1 198.96C549.847 198.96 550.476 198.821 550.988 198.544C551.5 198.245 551.905 197.829 552.204 197.296C552.524 196.763 552.748 196.112 552.876 195.344C553.025 194.555 553.1 193.68 553.1 192.72V188.912C553.1 186.992 552.801 185.477 552.204 184.368C551.628 183.259 550.593 182.704 549.1 182.704C547.607 182.704 546.561 183.259 545.964 184.368C545.388 185.477 545.1 186.992 545.1 188.912V192.752C545.1 194.672 545.388 196.187 545.964 197.296C546.561 198.405 547.607 198.96 549.1 198.96ZM581.075 202V179.664H585.267V198.544H595.155V202H581.075ZM606.663 202.384C605.212 202.384 603.953 202.128 602.887 201.616C601.82 201.083 600.935 200.325 600.231 199.344C599.548 198.363 599.036 197.157 598.695 195.728C598.375 194.299 598.215 192.667 598.215 190.832C598.215 189.019 598.375 187.397 598.695 185.968C599.036 184.517 599.548 183.301 600.231 182.32C600.935 181.339 601.82 180.592 602.887 180.08C603.953 179.547 605.212 179.28 606.663 179.28C609.564 179.28 611.697 180.293 613.062 182.32C614.428 184.347 615.111 187.184 615.111 190.832C615.111 194.48 614.428 197.317 613.062 199.344C611.697 201.371 609.564 202.384 606.663 202.384ZM606.663 198.96C607.409 198.96 608.039 198.821 608.551 198.544C609.063 198.245 609.468 197.829 609.767 197.296C610.087 196.763 610.311 196.112 610.439 195.344C610.588 194.555 610.663 193.68 610.663 192.72V188.912C610.663 186.992 610.364 185.477 609.767 184.368C609.191 183.259 608.156 182.704 606.663 182.704C605.169 182.704 604.124 183.259 603.527 184.368C602.951 185.477 602.663 186.992 602.663 188.912V192.752C602.663 194.672 602.951 196.187 603.527 197.296C604.124 198.405 605.169 198.96 606.663 198.96ZM630.618 202L629.05 196.336H622.426L620.89 202H616.666L622.938 179.664H628.762L635.066 202H630.618ZM625.882 183.792H625.626L623.162 192.912H628.346L625.882 183.792ZM637.774 179.664H644.718C647.619 179.664 649.774 180.624 651.182 182.544C652.611 184.464 653.326 187.227 653.326 190.832C653.326 194.459 652.611 197.232 651.182 199.152C649.774 201.051 647.619 202 644.718 202H637.774V179.664ZM644.43 198.64C645.966 198.64 647.096 198.139 647.822 197.136C648.568 196.133 648.942 194.672 648.942 192.752V188.88C648.942 186.981 648.568 185.531 647.822 184.528C647.096 183.525 645.966 183.024 644.43 183.024H641.902V198.64H644.43Z" fill="#7A818A"/>
<rect x="667" y="179" width="120" height="24" rx="4" fill="#7A818A"/>
<rect x="795" y="179" width="88" height="24" rx="4" fill="#7A818A"/>
<rect x="891" y="179" width="241" height="24" rx="4" fill="#7A818A"/>
</g>
<g style="mix-blend-mode:multiply" opacity="0.5">
<rect x="68" y="539" width="306" height="24" rx="4" fill="#7A818A"/>
<rect x="382" y="539" width="216" height="24" rx="4" fill="#7A818A"/>
<rect x="606" y="539" width="181" height="24" rx="4" fill="#7A818A"/>
<path fill-rule="evenodd" clip-rule="evenodd" d="M827 603.466H830.5C830.776 603.466 831 603.708 831 604.006V607.244C831 607.542 830.776 607.784 830.5 607.784H827.5C827.224 607.784 827 607.542 827 607.244V603.466ZM819 603.466H823V607.244C823 607.542 822.776 607.784 822.5 607.784H819.5C819.224 607.784 819 607.542 819 607.244V603.466ZM811 603.466H815V607.244C815 607.542 814.776 607.784 814.5 607.784H811.5C811.224 607.784 811 607.542 811 607.244V603.466ZM823 599.148H827V603.466H823V599.148ZM803 603.466H807V607.244C807 607.542 806.776 607.784 806.5 607.784H803.5C803.224 607.784 803 607.542 803 607.244V603.466ZM815 599.148H819V603.466H815V599.148ZM795 603.466H799V607.244C799 607.542 798.776 607.784 798.5 607.784H795.5C795.224 607.784 795 607.542 795 607.244V603.466ZM807 599.148H811V603.466H807V599.148ZM827 594.83H830.5C830.776 594.83 831 595.071 831 595.369V598.608C831 598.906 830.776 599.148 830.5 599.148H827V594.83ZM827 586.193H830.5C830.776 586.193 831 586.435 831 586.733V589.972C831 590.27 830.776 590.511 830.5 590.511H827V586.193ZM823 590.511H827V594.83H823V590.511ZM819 594.83H823V599.148H819V594.83ZM811 594.83H815V599.148H811V594.83ZM815 590.511H819V594.83H815V590.511ZM819 586.193H823V590.511H819V586.193ZM823 582.415C823 582.117 823.224 581.875 823.5 581.875H826.5C826.776 581.875 827 582.117 827 582.415V586.193H823V582.415ZM795 586.693C795 586.417 795.224 586.193 795.5 586.193H799V590.511H795V586.693ZM799 582.415C799 582.117 799.224 581.875 799.5 581.875H802.5C802.776 581.875 803 582.117 803 582.415V586.193H799V582.415ZM815 582.415C815 582.117 815.224 581.875 815.5 581.875H818.5C818.776 581.875 819 582.117 819 582.415V586.193H815V582.415ZM811 586.193H815V590.511H811V586.193ZM807 590.511H811V594.83H807V590.511ZM803 594.83H807V599.148H803V594.83ZM799 599.148H803V603.466H799V599.148ZM795 594.83H799V599.148H795V594.83ZM799 590.511H803V594.83H799V590.511ZM803 586.193H807V590.511H803V586.193ZM807 582.415C807 582.117 807.224 581.875 807.5 581.875H810.5C810.776 581.875 811 582.117 811 582.415V586.193H807V582.415Z" fill="#7A818A"/>
<path fill-rule="evenodd" clip-rule="evenodd" d="M831.008 603.466H827.508C827.232 603.466 827.008 603.708 827.008 604.006V607.244C827.008 607.542 827.232 607.784 827.508 607.784H830.508C830.784 607.784 831.008 607.542 831.008 607.244V603.466ZM839.008 603.466H835.008V607.244C835.008 607.542 835.232 607.784 835.508 607.784H838.508C838.784 607.784 839.008 607.542 839.008 607.244V603.466ZM847.008 603.466H843.008V607.244C843.008 607.542 843.232 607.784 843.508 607.784H846.508C846.784 607.784 847.008 607.542 847.008 607.244V603.466ZM835.008 599.148H831.008V603.466H835.008V599.148ZM855.008 603.466H851.008V607.244C851.008 607.542 851.232 607.784 851.508 607.784H854.508C854.784 607.784 855.008 607.542 855.008 607.244V603.466ZM843.008 599.148H839.008V603.466H843.008V599.148ZM863.008 603.466H859.008V607.244C859.008 607.542 859.232 607.784 859.508 607.784H862.508C862.784 607.784 863.008 607.542 863.008 607.244V603.466ZM871.008 604.006C871.008 603.708 870.784 603.466 870.508 603.466H867.008V607.244C867.008 607.542 867.232 607.784 867.508 607.784H870.508C870.784 607.784 871.008 607.542 871.008 607.244V604.006ZM851.008 599.148H847.008V603.466H851.008V599.148ZM871.008 595.369C871.008 595.071 870.784 594.83 870.508 594.83H867.008V599.148H870.508C870.784 599.148 871.008 598.906 871.008 598.608V595.369ZM867.008 590.511H863.008V594.83H867.008V590.511ZM831.008 594.83H827.508C827.232 594.83 827.008 595.071 827.008 595.369V598.608C827.008 598.906 827.232 599.148 827.508 599.148H831.008V594.83ZM831.008 586.193H827.508C827.232 586.193 827.008 586.435 827.008 586.733V589.972C827.008 590.27 827.232 590.511 827.508 590.511H831.008V586.193ZM835.008 590.511H831.008V594.83H835.008V590.511ZM839.008 594.83H835.008V599.148H839.008V594.83ZM847.008 594.83H843.008V599.148H847.008V594.83ZM843.008 590.511H839.008V594.83H843.008V590.511ZM839.008 586.193H835.008V590.511H839.008V586.193ZM835.008 582.415C835.008 582.117 834.784 581.875 834.508 581.875H831.508C831.232 581.875 831.008 582.117 831.008 582.415V586.193H835.008V582.415ZM863.008 586.193H859.008V590.511H863.008V586.193ZM859.008 582.415C859.008 582.117 858.784 581.875 858.508 581.875H855.508C855.232 581.875 855.008 582.117 855.008 582.415V586.193H859.008V582.415ZM843.008 582.415C843.008 582.117 842.784 581.875 842.508 581.875H839.508C839.232 581.875 839.008 582.117 839.008 582.415V586.193H843.008V582.415ZM847.008 586.193H843.008V590.511H847.008V586.193ZM851.008 590.511H847.008V594.83H851.008V590.511ZM855.008 594.83H851.008V599.148H855.008V594.83ZM859.008 599.148H855.008V603.466H859.008V599.148ZM867.008 599.148H863.008V603.466H867.008V599.148ZM863.008 594.83H859.008V599.148H863.008V594.83ZM859.008 590.511H855.008V594.83H859.008V590.511ZM855.008 586.193H851.008V590.511H855.008V586.193ZM851.008 582.415C851.008 582.117 850.784 581.875 850.508 581.875H847.508C847.232 581.875 847.008 582.117 847.008 582.415V586.193H851.008V582.415ZM867.008 582.415C867.008 582.117 866.784 581.875 866.508 581.875H863.508C863.232 581.875 863.008 582.117 863.008 582.415V586.193H867.008V582.415ZM871.008 586.733C871.008 586.435 870.784 586.193 870.508 586.193H867.008V590.511H870.508C870.784 590.511 871.008 590.27 871.008 589.972V586.733Z" fill="#7A818A"/>
<path fill-rule="evenodd" clip-rule="evenodd" d="M871.037 603.466H867.537C867.261 603.466 867.037 603.708 867.037 604.006V607.244C867.037 607.542 867.261 607.784 867.537 607.784H870.537C870.814 607.784 871.037 607.542 871.037 607.244V603.466ZM879.037 603.466H875.037V607.244C875.037 607.542 875.261 607.784 875.537 607.784H878.537C878.814 607.784 879.037 607.542 879.037 607.244V603.466ZM887.037 603.466H883.037V607.244C883.037 607.542 883.261 607.784 883.537 607.784H886.537C886.814 607.784 887.037 607.542 887.037 607.244V603.466ZM875.037 599.148H871.037V603.466H875.037V599.148ZM895.037 603.466H891.037V607.244C891.037 607.542 891.261 607.784 891.537 607.784H894.537C894.814 607.784 895.037 607.542 895.037 607.244V603.466ZM883.037 599.148H879.037V603.466H883.037V599.148ZM903.037 603.466H899.037V607.244C899.037 607.542 899.261 607.784 899.537 607.784H902.537C902.814 607.784 903.037 607.542 903.037 607.244V603.466ZM911.037 604.006C911.037 603.708 910.814 603.466 910.537 603.466H907.037V607.244C907.037 607.542 907.261 607.784 907.537 607.784H910.537C910.814 607.784 911.037 607.542 911.037 607.244V604.006ZM891.037 599.148H887.037V603.466H891.037V599.148ZM911.037 595.369C911.037 595.071 910.814 594.83 910.537 594.83H907.037V599.148H910.537C910.814 599.148 911.037 598.906 911.037 598.608V595.369ZM907.037 590.511H903.037V594.83H907.037V590.511ZM871.037 594.83H867.537C867.261 594.83 867.037 595.071 867.037 595.369V598.608C867.037 598.906 867.261 599.148 867.537 599.148H871.037V594.83ZM871.037 586.193H867.537C867.261 586.193 867.037 586.435 867.037 586.733V589.972C867.037 590.27 867.261 590.511 867.537 590.511H871.037V586.193ZM875.037 590.511H871.037V594.83H875.037V590.511ZM879.037 594.83H875.037V599.148H879.037V594.83ZM887.037 594.83H883.037V599.148H887.037V594.83ZM883.037 590.511H879.037V594.83H883.037V590.511ZM879.037 586.193H875.037V590.511H879.037V586.193ZM875.037 582.415C875.037 582.117 874.814 581.875 874.537 581.875H871.537C871.261 581.875 871.037 582.117 871.037 582.415V586.193H875.037V582.415ZM903.037 586.193H899.037V590.511H903.037V586.193ZM899.037 582.415C899.037 582.117 898.814 581.875 898.537 581.875H895.537C895.261 581.875 895.037 582.117 895.037 582.415V586.193H899.037V582.415ZM883.037 582.415C883.037 582.117 882.814 581.875 882.537 581.875H879.537C879.261 581.875 879.037 582.117 879.037 582.415V586.193H883.037V582.415ZM887.037 586.193H883.037V590.511H887.037V586.193ZM891.037 590.511H887.037V594.83H891.037V590.511ZM895.037 594.83H891.037V599.148H895.037V594.83ZM899.037 599.148H895.037V603.466H899.037V599.148ZM907.037 599.148H903.037V603.466H907.037V599.148ZM903.037 594.83H899.037V599.148H903.037V594.83ZM899.037 590.511H895.037V594.83H899.037V590.511ZM895.037 586.193H891.037V590.511H895.037V586.193ZM891.037 582.415C891.037 582.117 890.814 581.875 890.537 581.875H887.537C887.261 581.875 887.037 582.117 887.037 582.415V586.193H891.037V582.415ZM907.037 582.415C907.037 582.117 906.814 581.875 906.537 581.875H903.537C903.261 581.875 903.037 582.117 903.037 582.415V586.193H907.037V582.415ZM911.037 586.733C911.037 586.435 910.814 586.193 910.537 586.193H907.037V590.511H910.537C910.814 590.511 911.037 590.27 911.037 589.972V586.733Z" fill="#7A818A"/>
<rect x="919" y="539" width="213" height="24" rx="4" fill="#7A818A"/>
</g>
<g style="mix-blend-mode:multiply" opacity="0.5">
<rect x="68" y="379" width="306" height="24" rx="4" fill="#7A818A"/>
<rect x="382" y="379" width="186.375" height="24" rx="4" fill="#7A818A"/>
<path opacity="0.8" d="M620.176 403.384C617.253 403.384 615.088 402.381 613.68 400.376C612.293 398.371 611.6 395.523 611.6 391.832C611.6 388.163 612.293 385.325 613.68 383.32C615.088 381.293 617.253 380.28 620.176 380.28C621.285 380.28 622.256 380.429 623.088 380.728C623.941 381.027 624.677 381.443 625.296 381.976C625.915 382.488 626.427 383.117 626.832 383.864C627.237 384.589 627.557 385.389 627.792 386.264L623.952 387.352C623.803 386.84 623.632 386.36 623.44 385.912C623.248 385.464 623.003 385.08 622.704 384.76C622.427 384.419 622.075 384.163 621.648 383.992C621.221 383.8 620.709 383.704 620.112 383.704C618.661 383.704 617.616 384.259 616.976 385.368C616.357 386.477 616.048 387.992 616.048 389.912V393.752C616.048 395.672 616.357 397.187 616.976 398.296C617.616 399.405 618.661 399.96 620.112 399.96C620.709 399.96 621.221 399.875 621.648 399.704C622.075 399.512 622.427 399.256 622.704 398.936C623.003 398.595 623.248 398.2 623.44 397.752C623.632 397.304 623.803 396.824 623.952 396.312L627.792 397.4C627.557 398.275 627.237 399.085 626.832 399.832C626.427 400.557 625.915 401.187 625.296 401.72C624.677 402.232 623.941 402.637 623.088 402.936C622.256 403.235 621.285 403.384 620.176 403.384ZM638.788 403.384C637.337 403.384 636.078 403.128 635.012 402.616C633.945 402.083 633.06 401.325 632.356 400.344C631.673 399.363 631.161 398.157 630.82 396.728C630.5 395.299 630.34 393.667 630.34 391.832C630.34 390.019 630.5 388.397 630.82 386.968C631.161 385.517 631.673 384.301 632.356 383.32C633.06 382.339 633.945 381.592 635.012 381.08C636.078 380.547 637.337 380.28 638.788 380.28C641.689 380.28 643.822 381.293 645.188 383.32C646.553 385.347 647.236 388.184 647.236 391.832C647.236 395.48 646.553 398.317 645.188 400.344C643.822 402.371 641.689 403.384 638.788 403.384ZM638.788 399.96C639.534 399.96 640.164 399.821 640.676 399.544C641.188 399.245 641.593 398.829 641.892 398.296C642.212 397.763 642.436 397.112 642.564 396.344C642.713 395.555 642.788 394.68 642.788 393.72V389.912C642.788 387.992 642.489 386.477 641.892 385.368C641.316 384.259 640.281 383.704 638.788 383.704C637.294 383.704 636.249 384.259 635.652 385.368C635.076 386.477 634.788 387.992 634.788 389.912V393.752C634.788 395.672 635.076 397.187 635.652 398.296C636.249 399.405 637.294 399.96 638.788 399.96ZM654.423 386.968H654.103V403H650.519V380.664H655.671L661.527 396.696H661.847V380.664H665.431V403H660.279L654.423 386.968ZM679.243 384.12V403H675.083V384.12H668.363V380.664H685.963V384.12H679.243ZM689.406 403V380.664H703.518V384.12H693.598V389.944H703.166V393.4H693.598V399.544H703.518V403H689.406ZM711.986 386.968H711.666V403H708.082V380.664H713.234L719.09 396.696H719.41V380.664H722.994V403H717.842L711.986 386.968ZM736.805 384.12V403H732.645V384.12H725.925V380.664H743.525V384.12H736.805ZM766.06 380.664H773.836C775.948 380.664 777.569 381.197 778.7 382.264C779.852 383.309 780.428 384.739 780.428 386.552C780.428 387.832 780.108 388.856 779.468 389.624C778.849 390.392 777.964 390.947 776.812 391.288V391.448C778.156 391.768 779.212 392.355 779.98 393.208C780.769 394.04 781.164 395.224 781.164 396.76C781.164 397.699 781.004 398.552 780.684 399.32C780.385 400.067 779.948 400.717 779.372 401.272C778.817 401.827 778.135 402.253 777.324 402.552C776.535 402.851 775.639 403 774.636 403H766.06V380.664ZM773.356 399.96C774.529 399.96 775.404 399.747 775.98 399.32C776.577 398.872 776.876 398.115 776.876 397.048V395.992C776.876 394.947 776.577 394.211 775.98 393.784C775.404 393.336 774.529 393.112 773.356 393.112H770.156V399.96H773.356ZM772.812 390.2C773.943 390.2 774.775 389.997 775.308 389.592C775.863 389.187 776.14 388.483 776.14 387.48V386.424C776.14 385.421 775.863 384.717 775.308 384.312C774.775 383.907 773.943 383.704 772.812 383.704H770.156V390.2H772.812ZM785.888 403V380.664H790.08V399.544H799.968V403H785.888ZM811.475 403.384C810.024 403.384 808.766 403.128 807.699 402.616C806.632 402.083 805.747 401.325 805.043 400.344C804.36 399.363 803.848 398.157 803.507 396.728C803.187 395.299 803.027 393.667 803.027 391.832C803.027 390.019 803.187 388.397 803.507 386.968C803.848 385.517 804.36 384.301 805.043 383.32C805.747 382.339 806.632 381.592 807.699 381.08C808.766 380.547 810.024 380.28 811.475 380.28C814.376 380.28 816.51 381.293 817.875 383.32C819.24 385.347 819.923 388.184 819.923 391.832C819.923 395.48 819.24 398.317 817.875 400.344C816.51 402.371 814.376 403.384 811.475 403.384ZM811.475 399.96C812.222 399.96 812.851 399.821 813.363 399.544C813.875 399.245 814.28 398.829 814.579 398.296C814.899 397.763 815.123 397.112 815.251 396.344C815.4 395.555 815.475 394.68 815.475 393.72V389.912C815.475 387.992 815.176 386.477 814.579 385.368C814.003 384.259 812.968 383.704 811.475 383.704C809.982 383.704 808.936 384.259 808.339 385.368C807.763 386.477 807.475 387.992 807.475 389.912V393.752C807.475 395.672 807.763 397.187 808.339 398.296C808.936 399.405 809.982 399.96 811.475 399.96ZM831.239 403.384C828.316 403.384 826.151 402.381 824.743 400.376C823.356 398.371 822.663 395.523 822.663 391.832C822.663 388.163 823.356 385.325 824.743 383.32C826.151 381.293 828.316 380.28 831.239 380.28C832.348 380.28 833.319 380.429 834.151 380.728C835.004 381.027 835.74 381.443 836.359 381.976C836.977 382.488 837.489 383.117 837.895 383.864C838.3 384.589 838.62 385.389 838.855 386.264L835.015 387.352C834.865 386.84 834.695 386.36 834.503 385.912C834.311 385.464 834.065 385.08 833.767 384.76C833.489 384.419 833.137 384.163 832.711 383.992C832.284 383.8 831.772 383.704 831.175 383.704C829.724 383.704 828.679 384.259 828.039 385.368C827.42 386.477 827.111 387.992 827.111 389.912V393.752C827.111 395.672 827.42 397.187 828.039 398.296C828.679 399.405 829.724 399.96 831.175 399.96C831.772 399.96 832.284 399.875 832.711 399.704C833.137 399.512 833.489 399.256 833.767 398.936C834.065 398.595 834.311 398.2 834.503 397.752C834.695 397.304 834.865 396.824 835.015 396.312L838.855 397.4C838.62 398.275 838.3 399.085 837.895 399.832C837.489 400.557 836.977 401.187 836.359 401.72C835.74 402.232 835.004 402.637 834.151 402.936C833.319 403.235 832.348 403.384 831.239 403.384ZM849.114 393.208L846.778 396.28V403H842.586V380.664H846.778V390.712H846.97L849.562 387L854.266 380.664H859.002L851.994 390.072L859.322 403H854.586L849.114 393.208ZM862.094 403V380.664H876.206V384.12H866.286V389.944H875.854V393.4H866.286V399.544H876.206V403H862.094ZM880.961 380.664H887.905C890.806 380.664 892.961 381.624 894.369 383.544C895.798 385.464 896.513 388.227 896.513 391.832C896.513 395.459 895.798 398.232 894.369 400.152C892.961 402.051 890.806 403 887.905 403H880.961V380.664ZM887.617 399.64C889.153 399.64 890.284 399.139 891.009 398.136C891.756 397.133 892.129 395.672 892.129 393.752V389.88C892.129 387.981 891.756 386.531 891.009 385.528C890.284 384.525 889.153 384.024 887.617 384.024H885.089V399.64H887.617Z" fill="#7A818A"/>
<path d="M579.738 403.196C579.495 403.196 579.281 403.129 579.096 402.996C578.911 402.863 578.773 402.704 578.68 402.521C578.569 402.354 578.509 402.151 578.501 401.913C578.492 401.675 578.552 401.445 578.68 401.224L590.276 379.644C590.392 379.422 590.542 379.259 590.728 379.156C590.914 379.052 591.109 379 591.315 379C591.52 379 591.715 379.052 591.901 379.156C592.087 379.259 592.244 379.422 592.372 379.644L603.968 401.224C604.083 401.445 604.137 401.675 604.128 401.913C604.12 402.151 604.066 402.354 603.968 402.521C603.859 402.7 603.711 402.857 603.525 402.992C603.34 403.128 603.135 403.196 602.91 403.196H579.738ZM591.418 399.199C591.753 399.199 592.037 399.072 592.271 398.817C592.505 398.563 592.622 398.256 592.622 397.899C592.622 397.541 592.504 397.232 592.268 396.973C592.032 396.713 591.746 396.584 591.411 396.584C591.076 396.584 590.79 396.713 590.554 396.972C590.317 397.231 590.199 397.542 590.199 397.906C590.199 398.263 590.319 398.568 590.557 398.821C590.796 399.073 591.082 399.199 591.418 399.199ZM591.418 395.182C591.753 395.182 592.037 395.055 592.271 394.801C592.505 394.547 592.622 394.234 592.622 393.864V389.671C592.622 389.314 592.504 389.008 592.268 388.754C592.032 388.5 591.746 388.373 591.411 388.373C591.076 388.373 590.79 388.5 590.554 388.754C590.317 389.008 590.199 389.314 590.199 389.671V393.864C590.199 394.234 590.319 394.547 590.557 394.801C590.796 395.055 591.082 395.182 591.418 395.182Z" fill="#7A818A"/>
<rect x="910" y="379" width="222" height="24" rx="4" fill="#7A818A"/>
</g>
<g style="mix-blend-mode:multiply" opacity="0.5">
<rect x="68" y="739" width="306" height="24" rx="4" fill="#7A818A"/>
<rect x="382" y="739" width="216" height="24" rx="4" fill="#7A818A"/>
<rect x="606" y="739" width="181" height="24" rx="4" fill="#7A818A"/>
<rect x="795" y="739" width="88" height="24" rx="4" fill="#7A818A"/>
<rect x="891" y="739" width="241" height="24" rx="4" fill="#7A818A"/>
</g>
<g style="mix-blend-mode:multiply" opacity="0.5">
<path d="M228.896 317.161C229.255 317.161 229.556 317.041 229.798 316.802C230.041 316.563 230.162 316.267 230.162 315.914C230.162 315.562 230.043 315.261 229.803 315.012C229.564 314.763 229.265 314.638 228.906 314.638C228.547 314.638 228.246 314.761 228.003 315.008C227.761 315.254 227.64 315.55 227.64 315.894C227.64 316.254 227.759 316.554 227.998 316.797C228.237 317.039 228.537 317.161 228.896 317.161ZM228.9 312.271C229.237 312.271 229.527 312.153 229.769 311.917C230.012 311.681 230.133 311.395 230.133 311.058V306.033C230.133 305.69 230.013 305.399 229.774 305.16C229.534 304.92 229.243 304.8 228.901 304.8C228.564 304.8 228.278 304.92 228.042 305.16C227.806 305.399 227.688 305.69 227.688 306.033V311.058C227.688 311.395 227.806 311.681 228.042 311.917C228.278 312.153 228.564 312.271 228.9 312.271ZM225.292 322.099C224.96 322.099 224.639 322.034 224.331 321.902C224.022 321.771 223.757 321.594 223.536 321.371L218.529 316.365C218.305 316.143 218.128 315.879 217.997 315.574C217.867 315.269 217.802 314.947 217.802 314.609V307.371C217.802 307.044 217.867 306.729 217.997 306.424C218.128 306.119 218.305 305.856 218.529 305.635L223.536 300.629C223.758 300.404 224.021 300.227 224.327 300.097C224.632 299.966 224.954 299.901 225.292 299.901H232.529C232.856 299.901 233.172 299.966 233.477 300.097C233.781 300.227 234.044 300.404 234.266 300.629L239.272 305.635C239.496 305.856 239.674 306.119 239.804 306.424C239.935 306.729 240 307.044 240 307.371V314.609C240 314.941 239.934 315.261 239.803 315.57C239.672 315.879 239.495 316.144 239.272 316.365L234.266 321.371C234.044 321.596 233.781 321.773 233.477 321.903C233.172 322.034 232.856 322.099 232.529 322.099H225.292Z" fill="#7A818A"/>
<path opacity="0.8" d="M250.656 322V299.664H264.768V303.12H254.848V308.944H264.416V312.4H254.848V318.544H264.768V322H250.656ZM273.94 322H269.748V299.664H278.228C280.404 299.664 282.068 300.283 283.22 301.52C284.372 302.757 284.948 304.443 284.948 306.576C284.948 308.219 284.564 309.605 283.796 310.736C283.049 311.845 281.972 312.549 280.564 312.848L285.332 322H280.724L276.468 313.328H273.94V322ZM277.364 310.064C278.494 310.064 279.305 309.84 279.796 309.392C280.286 308.923 280.532 308.187 280.532 307.184V305.968C280.532 304.965 280.286 304.24 279.796 303.792C279.305 303.323 278.494 303.088 277.364 303.088H273.94V310.064H277.364ZM293.127 322H288.935V299.664H297.415C299.591 299.664 301.255 300.283 302.407 301.52C303.559 302.757 304.135 304.443 304.135 306.576C304.135 308.219 303.751 309.605 302.983 310.736C302.236 311.845 301.159 312.549 299.751 312.848L304.519 322H299.911L295.655 313.328H293.127V322ZM296.551 310.064C297.682 310.064 298.492 309.84 298.983 309.392C299.474 308.923 299.719 308.187 299.719 307.184V305.968C299.719 304.965 299.474 304.24 298.983 303.792C298.492 303.323 297.682 303.088 296.551 303.088H293.127V310.064H296.551ZM307.483 327.92V324.496H322.843V327.92H307.483ZM327.31 299.664H335.086C337.198 299.664 338.819 300.197 339.95 301.264C341.102 302.309 341.678 303.739 341.678 305.552C341.678 306.832 341.358 307.856 340.718 308.624C340.099 309.392 339.214 309.947 338.062 310.288V310.448C339.406 310.768 340.462 311.355 341.23 312.208C342.019 313.04 342.414 314.224 342.414 315.76C342.414 316.699 342.254 317.552 341.934 318.32C341.635 319.067 341.198 319.717 340.622 320.272C340.067 320.827 339.385 321.253 338.574 321.552C337.785 321.851 336.889 322 335.886 322H327.31V299.664ZM334.606 318.96C335.779 318.96 336.654 318.747 337.23 318.32C337.827 317.872 338.126 317.115 338.126 316.048V314.992C338.126 313.947 337.827 313.211 337.23 312.784C336.654 312.336 335.779 312.112 334.606 312.112H331.406V318.96H334.606ZM334.062 309.2C335.193 309.2 336.025 308.997 336.558 308.592C337.113 308.187 337.39 307.483 337.39 306.48V305.424C337.39 304.421 337.113 303.717 336.558 303.312C336.025 302.907 335.193 302.704 334.062 302.704H331.406V309.2H334.062ZM347.138 322V299.664H351.33V318.544H361.218V322H347.138ZM372.725 322.384C371.274 322.384 370.016 322.128 368.949 321.616C367.882 321.083 366.997 320.325 366.293 319.344C365.61 318.363 365.098 317.157 364.757 315.728C364.437 314.299 364.277 312.667 364.277 310.832C364.277 309.019 364.437 307.397 364.757 305.968C365.098 304.517 365.61 303.301 366.293 302.32C366.997 301.339 367.882 300.592 368.949 300.08C370.016 299.547 371.274 299.28 372.725 299.28C375.626 299.28 377.76 300.293 379.125 302.32C380.49 304.347 381.173 307.184 381.173 310.832C381.173 314.48 380.49 317.317 379.125 319.344C377.76 321.371 375.626 322.384 372.725 322.384ZM372.725 318.96C373.472 318.96 374.101 318.821 374.613 318.544C375.125 318.245 375.53 317.829 375.829 317.296C376.149 316.763 376.373 316.112 376.501 315.344C376.65 314.555 376.725 313.68 376.725 312.72V308.912C376.725 306.992 376.426 305.477 375.829 304.368C375.253 303.259 374.218 302.704 372.725 302.704C371.232 302.704 370.186 303.259 369.589 304.368C369.013 305.477 368.725 306.992 368.725 308.912V312.752C368.725 314.672 369.013 316.187 369.589 317.296C370.186 318.405 371.232 318.96 372.725 318.96ZM392.489 322.384C389.566 322.384 387.401 321.381 385.993 319.376C384.606 317.371 383.913 314.523 383.913 310.832C383.913 307.163 384.606 304.325 385.993 302.32C387.401 300.293 389.566 299.28 392.489 299.28C393.598 299.28 394.569 299.429 395.401 299.728C396.254 300.027 396.99 300.443 397.609 300.976C398.227 301.488 398.739 302.117 399.145 302.864C399.55 303.589 399.87 304.389 400.105 305.264L396.265 306.352C396.115 305.84 395.945 305.36 395.753 304.912C395.561 304.464 395.315 304.08 395.017 303.76C394.739 303.419 394.387 303.163 393.961 302.992C393.534 302.8 393.022 302.704 392.425 302.704C390.974 302.704 389.929 303.259 389.289 304.368C388.67 305.477 388.361 306.992 388.361 308.912V312.752C388.361 314.672 388.67 316.187 389.289 317.296C389.929 318.405 390.974 318.96 392.425 318.96C393.022 318.96 393.534 318.875 393.961 318.704C394.387 318.512 394.739 318.256 395.017 317.936C395.315 317.595 395.561 317.2 395.753 316.752C395.945 316.304 396.115 315.824 396.265 315.312L400.105 316.4C399.87 317.275 399.55 318.085 399.145 318.832C398.739 319.557 398.227 320.187 397.609 320.72C396.99 321.232 396.254 321.637 395.401 321.936C394.569 322.235 393.598 322.384 392.489 322.384ZM410.364 312.208L408.028 315.28V322H403.836V299.664H408.028V309.712H408.22L410.812 306L415.516 299.664H420.252L413.244 309.072L420.572 322H415.836L410.364 312.208ZM423.344 322V299.664H437.456V303.12H427.536V308.944H437.104V312.4H427.536V318.544H437.456V322H423.344ZM442.211 299.664H449.155C452.056 299.664 454.211 300.624 455.619 302.544C457.048 304.464 457.763 307.227 457.763 310.832C457.763 314.459 457.048 317.232 455.619 319.152C454.211 321.051 452.056 322 449.155 322H442.211V299.664ZM448.867 318.64C450.403 318.64 451.534 318.139 452.259 317.136C453.006 316.133 453.379 314.672 453.379 312.752V308.88C453.379 306.981 453.006 305.531 452.259 304.528C451.534 303.525 450.403 303.024 448.867 303.024H446.339V318.64H448.867ZM460.983 327.92V324.496H476.343V327.92H460.983ZM480.81 299.664H488.586C490.698 299.664 492.319 300.197 493.45 301.264C494.602 302.309 495.178 303.739 495.178 305.552C495.178 306.832 494.858 307.856 494.218 308.624C493.599 309.392 492.714 309.947 491.562 310.288V310.448C492.906 310.768 493.962 311.355 494.73 312.208C495.519 313.04 495.914 314.224 495.914 315.76C495.914 316.699 495.754 317.552 495.434 318.32C495.135 319.067 494.698 319.717 494.122 320.272C493.567 320.827 492.885 321.253 492.074 321.552C491.285 321.851 490.389 322 489.386 322H480.81V299.664ZM488.106 318.96C489.279 318.96 490.154 318.747 490.73 318.32C491.327 317.872 491.626 317.115 491.626 316.048V314.992C491.626 313.947 491.327 313.211 490.73 312.784C490.154 312.336 489.279 312.112 488.106 312.112H484.906V318.96H488.106ZM487.562 309.2C488.693 309.2 489.525 308.997 490.058 308.592C490.613 308.187 490.89 307.483 490.89 306.48V305.424C490.89 304.421 490.613 303.717 490.058 303.312C489.525 302.907 488.693 302.704 487.562 302.704H484.906V309.2H487.562ZM504.958 322V313.84L497.694 299.664H502.366L504.958 305.04L506.974 309.616H507.198L509.246 305.04L511.87 299.664H516.382L509.118 313.84V322H504.958ZM518.545 327.92V324.496H533.905V327.92H518.545ZM550.181 322L548.613 316.336H541.989L540.453 322H536.229L542.501 299.664H548.325L554.628 322H550.181ZM545.445 303.792H545.189L542.725 312.912H547.909L545.445 303.792ZM557.336 299.664H564.28C567.181 299.664 569.336 300.624 570.744 302.544C572.173 304.464 572.888 307.227 572.888 310.832C572.888 314.459 572.173 317.232 570.744 319.152C569.336 321.051 567.181 322 564.28 322H557.336V299.664ZM563.992 318.64C565.528 318.64 566.659 318.139 567.384 317.136C568.131 316.133 568.504 314.672 568.504 312.752V308.88C568.504 306.981 568.131 305.531 567.384 304.528C566.659 303.525 565.528 303.024 563.992 303.024H561.464V318.64H563.992ZM588.204 311.664L588.396 305.2H588.108L583.788 316.688L579.468 305.2H579.18L579.372 311.664V322H575.724V299.664H580.716L583.82 307.888H584.044L587.18 299.664H591.852V322H588.204V311.664ZM595.871 322V318.864H600.895V302.8H595.871V299.664H610.079V302.8H605.055V318.864H610.079V322H595.871ZM618.611 305.968H618.291V322H614.707V299.664H619.859L625.715 315.696H626.035V299.664H629.619V322H624.467L618.611 305.968Z" fill="#7A818A"/>
<rect x="68" y="299" width="140.012" height="24" rx="4" fill="#7A818A"/>
<rect x="639.772" y="299" width="147.228" height="24" rx="4" fill="#7A818A"/>
<rect x="795" y="299" width="88" height="24" rx="4" fill="#7A818A"/>
<rect x="891" y="299" width="241" height="24" rx="4" fill="#7A818A"/>
</g>
<g style="mix-blend-mode:multiply" opacity="0.5">
<rect x="68" y="659" width="306" height="24" rx="4" fill="#7A818A"/>
<rect x="382" y="659" width="216" height="24" rx="4" fill="#7A818A"/>
<rect x="606" y="659" width="181" height="24" rx="4" fill="#7A818A"/>
<path opacity="0.8" d="M801.336 659.664H808.28C811.181 659.664 813.336 660.624 814.744 662.544C816.173 664.464 816.888 667.227 816.888 670.832C816.888 674.459 816.173 677.232 814.744 679.152C813.336 681.051 811.181 682 808.28 682H801.336V659.664ZM807.992 678.64C809.528 678.64 810.659 678.139 811.384 677.136C812.131 676.133 812.504 674.672 812.504 672.752V668.88C812.504 666.981 812.131 665.531 811.384 664.528C810.659 663.525 809.528 663.024 807.992 663.024H805.464V678.64H807.992ZM820.844 682V659.664H834.956V663.12H825.036V668.944H834.604V672.4H825.036V678.544H834.956V682H820.844ZM843.423 665.968H843.103V682H839.519V659.664H844.671L850.527 675.696H850.847V659.664H854.431V682H849.279L843.423 665.968ZM859.059 682V678.864H864.083V662.8H859.059V659.664H873.267V662.8H868.243V678.864H873.267V682H859.059ZM878.406 682V659.664H892.518V663.12H882.598V668.944H892.166V672.4H882.598V678.544H892.518V682H878.406ZM897.274 659.664H904.218C907.119 659.664 909.274 660.624 910.682 662.544C912.111 664.464 912.826 667.227 912.826 670.832C912.826 674.459 912.111 677.232 910.682 679.152C909.274 681.051 907.119 682 904.218 682H897.274V659.664ZM903.93 678.64C905.466 678.64 906.596 678.139 907.322 677.136C908.068 676.133 908.442 674.672 908.442 672.752V668.88C908.442 666.981 908.068 665.531 907.322 664.528C906.596 663.525 905.466 663.024 903.93 663.024H901.402V678.64H903.93Z" fill="#7A818A"/>
<rect x="927" y="659" width="205" height="24" rx="4" fill="#7A818A"/>
</g>
</g>
</g>
</g>
<defs>
<filter id="filter0_b_296_1464" x="-80" y="-80" width="1360" height="940" filterUnits="userSpaceOnUse" color-interpolation-filters="sRGB">
<feFlood flood-opacity="0" result="BackgroundImageFix"/>
<feGaussianBlur in="BackgroundImageFix" stdDeviation="40"/>
<feComposite in2="SourceAlpha" operator="in" result="effect1_backgroundBlur_296_1464"/>
<feBlend mode="normal" in="SourceGraphic" in2="effect1_backgroundBlur_296_1464" result="shape"/>
</filter>
<linearGradient id="paint0_linear_296_1464" x1="197.5" y1="-99.3474" x2="197.5" y2="829.674" gradientUnits="userSpaceOnUse">
<stop stop-color="#5B5E62"/>
<stop offset="1" stop-color="#12161C"/>
</linearGradient>
<clipPath id="clip0_296_1464">
<rect width="1200" height="780" rx="20" fill="white"/>
</clipPath>
</defs>
</svg>
