<svg width="142" height="40" viewBox="0 0 142 40" fill="none" xmlns="http://www.w3.org/2000/svg">
<g id="iMAP &#226;&#128;&#148; Dummy Logo">
<g id="Layer_1">
<g id="Group">
<path id="Vector" d="M90.7679 9.26261L85.9002 3.82227H79.6963V14.703H84.6594V8.88083L89.5271 14.703H92.0087L96.9718 8.88083V14.703H101.839V3.82227H95.731L90.7679 9.26261Z" fill="#033155"/>
<path id="Vector_2" d="M108.998 3.82227L102.221 14.703H107.757L108.711 12.7941H115.011L115.965 14.703H121.501L114.724 3.82227H108.998ZM110.239 10.2171L111.957 6.97194L113.675 10.2171H110.239Z" fill="#033155"/>
<path id="Vector_3" d="M134.195 3.82227H122.074V14.703H127.037V12.0305H134.291C136.868 12.0305 139.063 10.1216 139.063 7.92639C138.967 5.73116 136.772 3.82227 134.195 3.82227ZM133.718 8.5945C133.527 8.78539 133.241 8.88083 132.954 8.88083H126.941V7.06739H132.954C133.241 7.06739 133.527 7.16283 133.718 7.35372C133.909 7.54461 134.004 7.7355 134.004 8.02183C134.004 8.21272 133.909 8.49906 133.718 8.5945Z" fill="#033155"/>
<path id="Vector_4" d="M72.1562 6.68561L77.1194 5.25394V3.82227H72.1562V6.68561Z" fill="#033155"/>
<path id="Vector_5" d="M72.1562 14.7028H77.1194V5.92188L72.1562 8.02166V14.7028Z" fill="#033155"/>
</g>
<g id="Group_2">
<path id="Vector_6" d="M73.3016 18.2344H72.1562V25.2018H73.3016V18.2344Z" fill="#8496B3"/>
<path id="Vector_7" d="M76.5465 22.4339L75.4966 18.2344H74.0649V25.2018H75.1148V20.1433L76.4511 25.2018H77.5964V18.2344H76.5465V22.4339Z" fill="#8496B3"/>
<path id="Vector_8" d="M79.2191 25.2018H80.269V19.2843H81.4143V18.2344H78.0737V19.2843H79.2191V25.2018Z" fill="#8496B3"/>
<path id="Vector_9" d="M84.9458 24.2474H83.0369V22.2431H84.564V21.1932H83.0369V19.2843H84.9458V18.2344H81.8916V25.2018H84.9458V24.2474Z" fill="#8496B3"/>
<path id="Vector_10" d="M88.8589 24.4383V23.3884C88.8589 22.6248 88.668 22.1476 88.0953 21.8613C88.5726 21.6704 88.8589 21.1932 88.8589 20.4296V19.8569C88.8589 18.807 88.3817 18.2344 87.2363 18.2344H85.6138V25.2018H86.7591V22.3385H87.1409C87.6181 22.3385 87.9044 22.6248 87.9044 23.1975V24.3428C87.9044 24.9155 87.9044 25.0109 87.9999 25.2018H89.1452C88.8589 25.0109 88.8589 24.7246 88.8589 24.4383ZM87.809 20.6205C87.809 21.1932 87.5227 21.384 87.1409 21.384H86.6637V19.2843H87.2363C87.6181 19.2843 87.809 19.4752 87.809 20.0478V20.6205Z" fill="#8496B3"/>
<path id="Vector_11" d="M93.0586 25.2018V18.2344H92.1041V22.4339L90.9588 18.2344H89.6226V25.2018H90.577V20.1433L91.9132 25.2018H93.0586Z" fill="#8496B3"/>
<path id="Vector_12" d="M96.8765 24.2474H94.9676V22.2431H96.4947V21.1932H94.9676V19.2843H96.8765V18.2344H93.8223V25.2018H96.8765V24.2474Z" fill="#8496B3"/>
<path id="Vector_13" d="M98.4036 25.2018H99.4535V19.2843H100.599V18.2344H97.2583V19.2843H98.4036V25.2018Z" fill="#8496B3"/>
<path id="Vector_14" d="M106.23 20.2387V25.2018H107.28V18.2344H105.753L104.989 23.1975L104.13 18.2344H102.603V25.2018H103.557V20.3342L104.416 25.2018H105.466L106.23 20.2387Z" fill="#8496B3"/>
<path id="Vector_15" d="M111.289 23.5793V19.9524C111.289 18.807 110.716 18.2344 109.666 18.2344C108.616 18.2344 108.043 18.9025 108.043 19.9524V23.5793C108.043 24.7246 108.616 25.2973 109.666 25.2973C110.716 25.2973 111.289 24.7246 111.289 23.5793ZM110.239 23.6747C110.239 24.1519 110.048 24.3428 109.666 24.3428C109.284 24.3428 109.093 24.1519 109.093 23.6747V19.8569C109.093 19.3797 109.284 19.1888 109.666 19.1888C110.048 19.1888 110.239 19.3797 110.239 19.8569V23.6747Z" fill="#8496B3"/>
<path id="Vector_16" d="M113.006 20.1433L114.343 25.2018H115.488V18.2344H114.534V22.4339L113.388 18.2344H111.957V25.2018H113.006V20.1433Z" fill="#8496B3"/>
<path id="Vector_17" d="M117.397 18.2344H116.251V25.2018H117.397V18.2344Z" fill="#8496B3"/>
<path id="Vector_18" d="M121.215 18.2344H117.874V19.2843H119.019V25.2018H120.069V19.2843H121.215V18.2344Z" fill="#8496B3"/>
<path id="Vector_19" d="M124.937 23.5793V19.9524C124.937 18.807 124.364 18.2344 123.314 18.2344C122.265 18.2344 121.692 18.9025 121.692 19.9524V23.5793C121.692 24.7246 122.265 25.2973 123.314 25.2973C124.364 25.2973 124.937 24.7246 124.937 23.5793ZM123.887 23.6747C123.887 24.1519 123.696 24.3428 123.314 24.3428C122.933 24.3428 122.742 24.1519 122.742 23.6747V19.8569C122.742 19.3797 122.933 19.1888 123.314 19.1888C123.696 19.1888 123.887 19.3797 123.887 19.8569V23.6747Z" fill="#8496B3"/>
<path id="Vector_20" d="M128.946 23.2932C128.946 22.5296 128.755 22.0524 128.182 21.7661C128.659 21.5752 128.946 21.0979 128.946 20.3344V19.7617C128.946 18.7118 128.469 18.1392 127.323 18.1392H125.701V25.1066H126.846V22.2433H127.228C127.705 22.2433 127.991 22.5296 127.991 23.1023V24.2476C127.991 24.8203 127.991 24.9157 128.087 25.1066H129.232C129.137 24.8203 129.137 24.6294 129.137 24.2476V23.2932H128.946ZM127.896 20.6207C127.896 21.1934 127.61 21.3843 127.228 21.3843H126.751V19.2845H127.323C127.705 19.2845 127.896 19.4754 127.896 20.0481V20.6207Z" fill="#8496B3"/>
<path id="Vector_21" d="M130.855 18.2344H129.709V25.2018H130.855V18.2344Z" fill="#8496B3"/>
<path id="Vector_22" d="M135.054 18.2344H134.1V22.4339L132.954 18.2344H131.618V25.2018H132.573V20.1433L133.909 25.2018H135.054V18.2344Z" fill="#8496B3"/>
<path id="Vector_23" d="M139.063 20.6205V19.9524C139.063 18.807 138.49 18.2344 137.44 18.2344C136.391 18.2344 135.818 18.9025 135.818 19.9524V23.5793C135.818 24.7246 136.391 25.2973 137.44 25.2973C138.49 25.2973 139.063 24.6292 139.063 23.5793V21.384H137.536V22.3385H138.013V23.5793C138.013 24.0565 137.822 24.2474 137.44 24.2474C137.059 24.2474 136.868 24.0565 136.868 23.5793V19.7615C136.868 19.2843 137.059 19.0934 137.44 19.0934C137.822 19.0934 138.013 19.2843 138.013 19.7615V20.525H139.063V20.6205Z" fill="#8496B3"/>
<path id="Vector_24" d="M73.6834 27.5884L72.1562 37.2283H73.4925L73.7788 35.5103H75.6877L75.974 37.2283H77.5012L75.8786 27.5884H73.6834ZM73.9697 34.1741L74.7333 29.3064L75.4968 34.1741H73.9697Z" fill="#8496B3"/>
<path id="Vector_25" d="M80.2692 27.4927C78.7421 27.4927 77.9785 28.3517 77.9785 29.8788V34.9374C77.9785 36.4645 78.7421 37.3235 80.2692 37.3235C81.7963 37.3235 82.5599 36.4645 82.5599 34.9374V33.6966H81.1282V35.0328C81.1282 35.7009 80.8419 35.9873 80.3646 35.9873C79.8874 35.9873 79.6011 35.7009 79.6011 35.0328V29.7833C79.6011 29.1152 79.8874 28.8289 80.3646 28.8289C80.8419 28.8289 81.1282 29.1152 81.1282 29.7833V30.8332H82.5599V29.8788C82.5599 28.3517 81.7963 27.4927 80.2692 27.4927Z" fill="#8496B3"/>
<path id="Vector_26" d="M83.0371 29.02H84.5642V37.2283H86.0913V29.02H87.7139V27.5884H83.0371V29.02Z" fill="#8496B3"/>
<path id="Vector_27" d="M89.9089 27.5884H88.3818V37.2283H89.9089V27.5884Z" fill="#8496B3"/>
<path id="Vector_28" d="M93.154 27.4927C91.6268 27.4927 90.8633 28.3517 90.8633 29.8788V34.9374C90.8633 36.4645 91.7223 37.3235 93.154 37.3235C94.5856 37.3235 95.4446 36.4645 95.4446 34.9374V29.8788C95.4446 28.3517 94.6811 27.4927 93.154 27.4927ZM93.9175 35.0328C93.9175 35.7009 93.6312 35.9873 93.154 35.9873C92.6767 35.9873 92.3904 35.7009 92.3904 35.0328V29.7833C92.3904 29.1152 92.6767 28.8289 93.154 28.8289C93.6312 28.8289 93.9175 29.1152 93.9175 29.7833V35.0328Z" fill="#8496B3"/>
<path id="Vector_29" d="M99.9309 33.4105L98.3083 27.5884H96.3994V37.2283H97.8311V30.2608L99.6445 37.2283H101.267V27.5884H99.9309V33.4105Z" fill="#8496B3"/>
<path id="Vector_30" d="M106.707 27.5884H104.512V37.2283H106.039V33.6014H106.803C108.33 33.6014 109.094 32.7424 109.094 31.2153V29.9745C108.998 28.4474 108.235 27.5884 106.707 27.5884ZM107.471 31.3107C107.471 31.9788 107.185 32.2652 106.707 32.2652H105.944V29.02H106.707C107.185 29.02 107.471 29.2109 107.471 29.9745V31.3107Z" fill="#8496B3"/>
<path id="Vector_31" d="M114.247 34.5556C114.247 33.5057 113.961 32.8376 113.197 32.4558C113.865 32.1695 114.152 31.5014 114.152 30.4515V29.6879C114.152 28.1608 113.484 27.4927 111.861 27.4927H109.761V37.1326H111.288V33.3148H111.766C112.434 33.3148 112.72 33.6011 112.72 34.5556V36.0827C112.72 36.8463 112.815 37.0371 112.815 37.228H114.343C114.152 36.8463 114.152 36.5599 114.152 36.0827V34.5556H114.247ZM112.72 30.9287C112.72 31.6922 112.338 31.9786 111.766 31.9786H111.193V29.0198H111.956C112.529 29.0198 112.72 29.3061 112.72 29.9742V30.9287Z" fill="#8496B3"/>
<path id="Vector_32" d="M117.492 27.4927C115.965 27.4927 115.202 28.3517 115.202 29.8788V34.9374C115.202 36.4645 116.061 37.3235 117.492 37.3235C118.924 37.3235 119.783 36.4645 119.783 34.9374V29.8788C119.783 28.3517 118.924 27.4927 117.492 27.4927ZM118.256 35.0328C118.256 35.7009 117.97 35.9873 117.492 35.9873C117.015 35.9873 116.729 35.7009 116.729 35.0328V29.7833C116.729 29.1152 117.015 28.8289 117.492 28.8289C117.97 28.8289 118.256 29.1152 118.256 29.7833V35.0328Z" fill="#8496B3"/>
<path id="Vector_33" d="M121.692 34.9376C121.692 35.7012 121.31 35.8921 120.833 35.8921C120.642 35.8921 120.451 35.8921 120.356 35.8921V37.2283C120.642 37.2283 120.833 37.2283 121.12 37.2283C122.265 37.2283 123.315 36.7511 123.315 34.8422V27.5884H121.788V34.9376H121.692Z" fill="#8496B3"/>
<path id="Vector_34" d="M124.269 37.2283H128.373V35.8921H125.796V33.0287H127.896V31.6925H125.796V29.02H128.373V27.5884H124.269V37.2283Z" fill="#8496B3"/>
<path id="Vector_35" d="M131.523 27.4927C129.995 27.4927 129.232 28.3517 129.232 29.8788V34.9374C129.232 36.4645 129.995 37.3235 131.523 37.3235C133.05 37.3235 133.813 36.4645 133.813 34.9374V33.6966H132.382V35.0328C132.382 35.7009 132.095 35.9873 131.618 35.9873C131.141 35.9873 130.855 35.7009 130.855 35.0328V29.7833C130.855 29.1152 131.141 28.8289 131.618 28.8289C132.095 28.8289 132.382 29.1152 132.382 29.7833V30.8332H133.813V29.8788C133.718 28.3517 132.954 27.4927 131.523 27.4927Z" fill="#8496B3"/>
<path id="Vector_36" d="M134.195 29.02H135.818V37.2283H137.345V29.02H138.872V27.5884H134.195V29.02Z" fill="#8496B3"/>
</g>
</g>
<g id="Layer_2">
<path id="Vector_37" fill-rule="evenodd" clip-rule="evenodd" d="M62.0392 1.1499L31.7833 17.3755L14.4123 6.30392L11.0718 7.64014L2.76807 35.51L7.44486 38.6597L31.1151 23.5794L55.1672 38.6597L58.6032 37.1326L58.8895 35.6054L65.4752 3.82235L62.0392 1.1499ZM13.4579 11.8397L29.3971 20.6206L8.20841 32.6467L13.4579 11.8397ZM56.1216 33.2193L35.1238 21.766L59.6531 7.25836L56.1216 33.2193Z" fill="url(#paint0_linear_240_791)"/>
</g>
</g>
<defs>
<linearGradient id="paint0_linear_240_791" x1="39.2431" y1="-3.27892" x2="25.9291" y2="57.9744" gradientUnits="userSpaceOnUse">
<stop offset="0.00261336" stop-color="#2FC2F3"/>
<stop offset="0.1441" stop-color="#29AEDE"/>
<stop offset="0.3658" stop-color="#1E89B5"/>
<stop offset="0.6483" stop-color="#0E557C"/>
<stop offset="0.8314" stop-color="#033155"/>
</linearGradient>
</defs>
</svg>
