<svg width="48" height="48" viewBox="0 0 48 48" fill="none" xmlns="http://www.w3.org/2000/svg">
<g id="OBJECTS" clip-path="url(#clip0_253_753)">
<path id="Vector" d="M46.9269 21.6297C48.3565 22.9515 48.3565 25.208 46.9269 26.4534L46.0224 27.3091C45.0439 28.2438 44.6668 29.721 45.1942 30.9664L45.6453 32.1328C46.397 33.9232 45.4185 35.9454 43.6119 36.4904L42.4067 36.8012C41.1275 37.1908 40.2229 38.3573 40.149 39.758L40.0726 41.0034C39.9962 42.7149 38.5667 44.0367 36.9843 44.0367C36.834 44.0367 36.6072 44.0367 36.4569 43.9577L35.2517 43.7234C35.1013 43.7234 34.8746 43.6445 34.7242 43.6445C33.5954 43.6445 32.5405 44.2659 32.013 45.2795L31.4116 46.3696C30.8103 47.4596 29.7554 48.0046 28.7005 48.0046C28.0991 48.0046 27.4213 47.7703 26.8939 47.3832L25.9154 46.6064C25.3879 46.2168 24.7101 45.985 24.1087 45.985C23.5074 45.985 22.8296 46.2193 22.3021 46.6064L21.3236 47.3068C20.7962 47.6965 20.1184 47.9282 19.517 47.9282C18.3882 47.9282 17.3333 47.3068 16.8058 46.2168L16.2045 45.1267C15.677 44.0367 14.6221 43.4153 13.4933 43.4153C13.3429 43.4153 13.1162 43.4153 12.9658 43.4942L11.7606 43.7285C11.6103 43.7285 11.3835 43.8075 11.2332 43.8075C9.57689 43.8075 8.2213 42.4857 8.1449 40.7742L7.8442 39.6842C7.7678 38.2834 6.86572 37.117 5.58654 36.7273L4.3813 36.4166C2.57468 35.8716 1.67014 33.8494 2.34793 32.059L2.79897 30.8925C3.32641 29.6471 3.02572 28.17 1.97083 27.2353L1.06628 26.3796C-0.363241 25.0578 -0.363241 22.8013 1.06628 21.5559L1.97083 20.7001C2.94931 19.7655 3.32641 18.2883 2.79897 17.0429L2.34793 15.8764C1.59619 14.086 2.57468 12.0639 4.3813 11.5188L5.58654 11.2081C6.86572 10.8185 7.77026 9.65201 7.8442 8.25126L7.92061 7.00586C7.99702 5.29439 9.42654 3.97259 11.0089 3.97259C11.1592 3.97259 11.386 3.97259 11.5363 4.05154L12.7416 4.28585C12.8919 4.28585 13.1187 4.3648 13.269 4.3648C14.3978 4.3648 15.4527 3.74338 15.9802 2.72974L16.5816 1.6397C17.1829 0.549659 18.2378 0.00463867 19.2927 0.00463867C19.8941 0.00463867 20.5719 0.238947 21.0994 0.626064L22.0778 1.40285C22.6053 1.79251 23.2831 2.02427 23.8845 2.02427C24.4858 2.02427 25.1636 1.78996 25.6911 1.40285L26.6696 0.702469C27.197 0.312804 27.8748 0.0810434 28.4762 0.0810434C29.605 0.0810434 30.6599 0.702469 31.1874 1.79251L31.7887 2.88255C32.3162 3.97259 33.3711 4.59402 34.4999 4.59402C34.6503 4.59402 34.877 4.59402 35.0274 4.51506L36.2326 4.28076C36.3829 4.28076 36.6097 4.20181 36.76 4.20181C38.4163 4.20181 39.7719 5.52361 39.8483 7.23507L39.9247 8.48047C40.0011 9.88122 40.9032 11.0477 42.1824 11.4373L43.3876 11.748C45.1942 12.2931 46.0988 14.3152 45.421 16.1057L45.1942 17.1168C44.6668 18.3622 44.9675 19.8393 46.0224 20.774L46.9269 21.6297Z" fill="#336F40"/>
<g id="Group">
<path id="Vector_2" d="M23.999 44.0817C35.4686 44.0817 44.7665 34.7827 44.7665 23.3117C44.7665 11.8408 35.4686 2.54175 23.999 2.54175C12.5294 2.54175 3.23145 11.8408 3.23145 23.3117C3.23145 34.7827 12.5294 44.0817 23.999 44.0817Z" fill="#336F40"/>
<path id="Vector_3" d="M28.3985 27.5696C27.4496 28.5501 25.9166 29.1841 24.4969 29.1841C19.6217 29.1841 19.2076 25.0715 19.1978 23.8109C19.1855 22.2219 19.7228 20.7423 20.6741 19.7517C21.6033 18.7815 22.8899 18.29 24.4969 18.29C25.9486 18.29 27.2697 18.8171 28.2161 19.7746L29.1527 20.722L33.5177 16.3648L32.5343 15.3615C30.3185 13.1027 27.5383 11.9109 24.4969 11.9109C21.1276 11.9109 18.2464 13.0543 16.1613 15.2189C14.0786 17.3834 12.8931 20.5208 12.9103 23.8313C12.9276 26.9355 13.9135 29.7826 15.6905 31.8427C17.7584 34.2416 20.8048 35.5098 24.4969 35.5098C27.7577 35.5098 30.6217 34.346 32.7832 32.1432L33.7444 31.1628L29.3573 26.579L28.3985 27.5696Z" fill="white"/>
<path id="Vector_4" d="M23.9992 40.4965C33.4242 40.4965 41.0647 32.8562 41.0647 23.4315C41.0647 14.0067 33.4242 6.36646 23.9992 6.36646C14.5741 6.36646 6.93359 14.0067 6.93359 23.4315C6.93359 32.8562 14.5741 40.4965 23.9992 40.4965Z" stroke="white" stroke-width="1.27328" stroke-miterlimit="10"/>
</g>
</g>
<defs>
<clipPath id="clip0_253_753">
<rect width="48" height="47.9999" fill="white"/>
</clipPath>
</defs>
</svg>
